<svg width="109" height="25" viewBox="0 0 109 25" fill="none" xmlns="http://www.w3.org/2000/svg">
<path d="M12.096 24.3441C9.70667 24.3441 7.59467 23.8747 5.76 22.9361C3.92533 21.9761 2.50667 20.6214 1.504 18.8721C0.501333 17.1227 0 15.0641 0 12.6961C0 10.3281 0.501333 8.2694 1.504 6.52006C2.50667 4.7494 3.92533 3.39473 5.76 2.45606C7.59467 1.49606 9.70667 1.01606 12.096 1.01606C13.7173 1.01606 15.1467 1.18673 16.384 1.52806C17.6427 1.84806 18.7947 2.36006 19.84 3.06406V7.70407C18.9013 6.93607 17.824 6.3814 16.608 6.04006C15.4133 5.6774 14.048 5.49607 12.512 5.49607C11.0827 5.49607 9.792 5.79473 8.64 6.39207C7.50933 6.96806 6.61333 7.80006 5.952 8.88806C5.29067 9.97606 4.96 11.2454 4.96 12.6961C4.96 14.1681 5.25867 15.4587 5.856 16.5681C6.47467 17.6561 7.33867 18.4987 8.448 19.0961C9.55733 19.6934 10.8373 19.9921 12.288 19.9921C13.6107 19.9921 14.7627 19.7574 15.744 19.2881V14.9681H12.128V11.3841H20.448V22.1681C18.336 23.6187 15.552 24.3441 12.096 24.3441Z" fill="url(#paint0_linear_2033_183)"/>
<path d="M31.7793 24.3441C29.9233 24.3441 28.2913 24.0134 26.8833 23.3521C25.4966 22.6694 24.4193 21.7201 23.6513 20.5041C22.9046 19.2667 22.5312 17.8267 22.5312 16.1841C22.5312 14.5841 22.9046 13.1654 23.6513 11.9281C24.4193 10.6907 25.4966 9.73073 26.8833 9.04806C28.2913 8.3654 29.9233 8.02406 31.7793 8.02406C33.6139 8.02406 35.2246 8.3654 36.6113 9.04806C38.0193 9.73073 39.0966 10.6907 39.8433 11.9281C40.6113 13.1654 40.9953 14.5841 40.9953 16.1841C40.9953 17.8267 40.6113 19.2667 39.8433 20.5041C39.0966 21.7201 38.0299 22.6694 36.6432 23.3521C35.2566 24.0134 33.6353 24.3441 31.7793 24.3441ZM31.7793 20.5681C33.0806 20.5681 34.1152 20.1734 34.8833 19.3841C35.6513 18.5734 36.0353 17.5067 36.0353 16.1841C36.0353 14.8187 35.6513 13.7521 34.8833 12.9841C34.1366 12.1947 33.1019 11.8001 31.7793 11.8001C30.4566 11.8001 29.4112 12.1947 28.6432 12.9841C27.8752 13.7521 27.4913 14.8187 27.4913 16.1841C27.4913 17.5067 27.8752 18.5734 28.6432 19.3841C29.4326 20.1734 30.4779 20.5681 31.7793 20.5681Z" fill="url(#paint1_linear_2033_183)"/>
<path d="M43.7025 0.216064H48.5345V23.8641H43.7025V0.216064Z" fill="url(#paint2_linear_2033_183)"/>
<path d="M59.378 24.3441C57.7993 24.3441 56.3913 24.0134 55.154 23.3521C53.938 22.6694 52.978 21.7201 52.274 20.5041C51.5913 19.2667 51.25 17.8374 51.25 16.2161C51.25 14.6161 51.5913 13.1974 52.274 11.9601C52.9567 10.7227 53.9167 9.76273 55.154 9.08006C56.3913 8.37606 57.7993 8.02406 59.378 8.02406C60.53 8.02406 61.586 8.18406 62.546 8.50406C63.506 8.82406 64.3167 9.28273 64.978 9.88006V0.216064H69.81V23.8641H65.138V22.2001C64.3487 22.9467 63.4847 23.4907 62.546 23.8321C61.6287 24.1734 60.5727 24.3441 59.378 24.3441ZM60.626 20.6001C61.6287 20.6001 62.514 20.3334 63.282 19.8001C64.0713 19.2667 64.6367 18.5521 64.978 17.6561V14.7441C64.6793 13.8694 64.1247 13.1654 63.314 12.6321C62.5247 12.0774 61.6287 11.8001 60.626 11.8001C59.3247 11.8001 58.258 12.2054 57.426 13.0161C56.6153 13.8267 56.21 14.8934 56.21 16.2161C56.21 17.5387 56.6153 18.6054 57.426 19.4161C58.258 20.2054 59.3247 20.6001 60.626 20.6001Z" fill="url(#paint3_linear_2033_183)"/>
<path d="M82.0033 24.3441C79.0592 24.3441 76.7446 23.6401 75.0592 22.2321C73.3739 20.8027 72.5312 18.8081 72.5312 16.2481C72.5312 13.7094 73.2779 11.7041 74.7712 10.2321C76.2859 8.76006 78.4406 8.02406 81.2353 8.02406C83.0699 8.02406 84.6273 8.3654 85.9072 9.04806C87.1872 9.73073 88.1579 10.6801 88.8193 11.8961C89.4806 13.0907 89.8112 14.4454 89.8112 15.9601V17.9121H77.1393C77.4806 19.8747 79.3152 20.8561 82.6432 20.8561C83.6246 20.8561 84.6379 20.7707 85.6833 20.6001C86.7286 20.4294 87.6353 20.1947 88.4033 19.8961V23.2881C87.6566 23.6081 86.6966 23.8641 85.5233 24.0561C84.3499 24.2481 83.1766 24.3441 82.0033 24.3441ZM85.2353 14.7761C85.1712 13.7521 84.7873 12.9627 84.0833 12.4081C83.3792 11.8321 82.4086 11.5441 81.1712 11.5441C79.9552 11.5441 78.9953 11.8321 78.2913 12.4081C77.5872 12.9841 77.2033 13.7734 77.1393 14.7761H85.2353Z" fill="url(#paint4_linear_2033_183)"/>
<path d="M92.4837 8.50406H97.1558V10.3921C97.8598 9.60273 98.6917 9.01606 99.6517 8.63206C100.633 8.22673 101.657 8.02406 102.724 8.02406C104.814 8.02406 106.372 8.5894 107.396 9.72006C108.441 10.8294 108.964 12.3334 108.964 14.2321V23.8641H104.132V14.7761C104.132 12.7921 103.214 11.8001 101.38 11.8001C100.569 11.8001 99.8118 12.0027 99.1077 12.4081C98.4037 12.7921 97.8064 13.3681 97.3158 14.1361V23.8641H92.4837V8.50406Z" fill="url(#paint5_linear_2033_183)"/>
<defs>
<linearGradient id="paint0_linear_2033_183" x1="0" y1="0.216064" x2="108.964" y2="24.3441" gradientUnits="userSpaceOnUse">
<stop stop-color="#F34378"/>
<stop offset="1" stop-color="#FDA90B"/>
</linearGradient>
<linearGradient id="paint1_linear_2033_183" x1="0" y1="0.216064" x2="108.964" y2="24.3441" gradientUnits="userSpaceOnUse">
<stop stop-color="#F34378"/>
<stop offset="1" stop-color="#FDA90B"/>
</linearGradient>
<linearGradient id="paint2_linear_2033_183" x1="0" y1="0.216064" x2="108.964" y2="24.3441" gradientUnits="userSpaceOnUse">
<stop stop-color="#F34378"/>
<stop offset="1" stop-color="#FDA90B"/>
</linearGradient>
<linearGradient id="paint3_linear_2033_183" x1="0" y1="0.216064" x2="108.964" y2="24.3441" gradientUnits="userSpaceOnUse">
<stop stop-color="#F34378"/>
<stop offset="1" stop-color="#FDA90B"/>
</linearGradient>
<linearGradient id="paint4_linear_2033_183" x1="0" y1="0.216064" x2="108.964" y2="24.3441" gradientUnits="userSpaceOnUse">
<stop stop-color="#F34378"/>
<stop offset="1" stop-color="#FDA90B"/>
</linearGradient>
<linearGradient id="paint5_linear_2033_183" x1="0" y1="0.216064" x2="108.964" y2="24.3441" gradientUnits="userSpaceOnUse">
<stop stop-color="#F34378"/>
<stop offset="1" stop-color="#FDA90B"/>
</linearGradient>
</defs>
</svg>
